<?xml version="1.0" encoding="utf-8"?>
<!-- Svg Vector Icons : http://www.onlinewebfonts.com/icon -->
<!DOCTYPE svg PUBLIC "-//W3C//DTD SVG 1.1//EN" "http://www.w3.org/Graphics/SVG/1.1/DTD/svg11.dtd">
<svg version="1.1" xmlns="http://www.w3.org/2000/svg" xmlns:xlink="http://www.w3.org/1999/xlink" x="0px" y="0px" viewBox="0 0 1000 1000" enable-background="new 0 0 1000 1000" xml:space="preserve">
<metadata> Svg Vector Icons : http://www.onlinewebfonts.com/icon </metadata>
<g><path d="M622.5,10C419.5,10,255,174.6,255,377.5c0,84.9,29.1,162.9,77.4,225.1l-309,309c-9,8.9-13.5,20.7-13.5,32.5c0,11.7,4.5,23.5,13.5,32.4c8.9,9,20.7,13.5,32.5,13.5c11.7,0,23.5-4.5,32.5-13.5l309-309c62.2,48.4,140.2,77.5,225.1,77.5c203,0,367.5-164.6,367.5-367.5S825.5,10,622.5,10z M622.5,653.1c-152,0-275.6-123.6-275.6-275.6c0-152,123.6-275.6,275.6-275.6c152,0,275.6,123.6,275.6,275.6C898.1,529.5,774.5,653.1,622.5,653.1z"/></g>
</svg>